<svg xmlns="http://www.w3.org/2000/svg" viewBox="0 0 64 64" width="128" height="128" role="img" aria-label="Splot"><title>Splot</title><defs><mask id="smb" maskUnits="userSpaceOnUse" x="0" y="0" width="64" height="64"><rect width="64" height="64" fill="#fff"/><path d="M8 21H14C20.5 21 25.5 43 32 43" stroke="#000" stroke-width="12" fill="none"/></mask><mask id="sma" maskUnits="userSpaceOnUse" x="0" y="0" width="64" height="64"><rect width="64" height="64" fill="#fff"/><path d="M32 21C38.5 21 43.5 43 50 43H56" stroke="#000" stroke-width="12" fill="none"/></mask></defs><g fill="none" stroke-width="7" stroke-linecap="round"><path d="M8 43H14C20.5 43 25.5 21 32 21C38.5 21 43.5 43 50 43H56" stroke="#F0AE2E" mask="url(#smb)"/><path d="M8 21H14C20.5 21 25.5 43 32 43C38.5 43 43.5 21 50 21H56" stroke="#5CC7B8" mask="url(#sma)"/></g><g><circle cx="8" cy="21" r="6" fill="#5CC7B8"/><circle cx="56" cy="21" r="6" fill="#5CC7B8"/><circle cx="8" cy="43" r="6" fill="#F0AE2E"/><circle cx="56" cy="43" r="6" fill="#F0AE2E"/></g></svg>